<svg width="1512" height="1340" viewBox="0 0 1512 1340" fill="none" xmlns="http://www.w3.org/2000/svg">
<path fill-rule="evenodd" clip-rule="evenodd" d="M57.5717 45.2477C60.4733 45.1616 62.9045 47.435 62.9914 50.3386C63.0783 53.2458 60.7788 55.6553 57.8829 55.7414C54.989 55.8234 52.5492 53.5572 52.4655 50.6467C52.3793 47.7402 54.676 45.3338 57.5717 45.2477ZM57.6858 49.0907C56.8912 49.1143 56.2856 49.7696 56.3084 50.5331C56.3302 51.2974 56.9743 51.9205 57.7698 51.8984C58.5641 51.8741 59.1715 51.2164 59.1487 50.4534C59.1256 49.6863 58.4798 49.0671 57.6858 49.0907Z" fill="#D9D8DD" fill-opacity="0.3"/>
<path fill-rule="evenodd" clip-rule="evenodd" d="M37.4936 16.734C37.7927 15.7154 38.8609 15.1321 39.8795 15.4311L45.2135 16.9972C45.7766 17.1625 46.2333 17.576 46.4536 18.1199L58.0668 46.7924C58.4653 47.7766 57.9907 48.8971 57.0067 49.2956C56.0228 49.6942 54.902 49.2198 54.5035 48.2356L43.2391 20.4243L38.7965 19.1199C37.7778 18.8208 37.1945 17.7526 37.4936 16.734Z" fill="#D9D8DD" fill-opacity="0.3"/>
<path fill-rule="evenodd" clip-rule="evenodd" d="M83.0952 40.3279C83.4905 41.3134 83.0117 42.4324 82.0265 42.8273L61.553 51.034C60.5678 51.4292 59.4486 50.9505 59.0536 49.965C58.6587 48.9798 59.1372 47.8605 60.1226 47.4656L80.5958 39.2589C81.5813 38.8639 82.7003 39.3424 83.0952 40.3279Z" fill="#D9D8DD" fill-opacity="0.3"/>
<path fill-rule="evenodd" clip-rule="evenodd" d="M64.7184 13.3611C64.2906 13.1551 63.7063 13.0861 62.9422 13.3811L56.0547 16.0394C56.0544 16.0394 56.0547 16.0394 56.0547 16.0394C55.2899 16.3348 54.9086 16.7764 54.735 17.2088C54.5548 17.6577 54.5165 18.3056 54.8336 19.125L62.3717 37.5714C62.6918 38.3939 63.1644 38.8549 63.6127 39.0705C64.0435 39.2776 64.6284 39.3452 65.3855 39.0525L72.2764 36.3937C73.0407 36.0987 73.4215 35.6573 73.5951 35.2247C73.7752 34.7757 73.8134 34.1272 73.4971 33.3073L65.9571 14.8618C65.6354 14.0365 65.1641 13.5758 64.7184 13.3611ZM69.5332 13.4502C68.9212 11.8886 67.8504 10.6025 66.3869 9.89759C64.9009 9.18161 63.2024 9.15957 61.5577 9.79458C61.5574 9.7946 61.5577 9.79455 61.5577 9.79458L54.67 12.4529C53.0261 13.0876 51.7822 14.2446 51.1672 15.7765C50.5597 17.2898 50.6448 18.9678 51.2575 20.5365L58.7953 38.9828C59.4086 40.5473 60.4836 41.8319 61.9468 42.5354C63.4323 43.2494 65.13 43.273 66.7721 42.6382L73.6609 39.9803C75.3051 39.3455 76.5486 38.188 77.163 36.6561C77.7699 35.1435 77.6848 33.466 77.0741 31.8985L69.5332 13.4502Z" fill="#D9D8DD" fill-opacity="0.3"/>
<path fill-rule="evenodd" clip-rule="evenodd" d="M64.587 17.8095C64.9692 18.7999 64.4763 19.9127 63.4857 20.2949L60.4737 21.4575C59.4833 21.8397 58.3705 21.3467 57.9881 20.3563C57.6059 19.3659 58.0991 18.2531 59.0894 17.8708L62.1014 16.7083C63.092 16.326 64.2046 16.8191 64.587 17.8095Z" fill="#D9D8DD" fill-opacity="0.3"/>
<path d="M596.495 143.089C596.495 142.038 597.356 141.167 598.417 141.167H602.619C603.262 141.167 603.83 141.486 604.179 141.97C604.407 142.287 604.541 142.674 604.541 143.089C604.541 144.165 603.681 145.011 602.619 145.011H598.417C597.356 145.011 596.495 144.165 596.495 143.089Z" fill="#D9D8DD" fill-opacity="0.3"/>
<path fill-rule="evenodd" clip-rule="evenodd" d="M593.831 169.692C594.54 173.606 597.95 176.561 602.065 176.561C606.153 176.561 609.582 173.606 610.296 169.692H620.904C621.613 173.606 625.025 176.561 629.138 176.561C633.738 176.561 637.505 172.819 637.505 168.18C637.505 165.156 635.874 162.505 633.448 161.041C633.56 160.835 633.658 160.621 633.738 160.402C634.535 160.735 635.345 161.246 635.863 162.029C636.447 162.9 637.64 163.157 638.526 162.567C639.412 161.978 639.656 160.799 639.072 159.902C637.952 158.21 636.334 157.287 635.112 156.827C634.837 156.713 634.574 156.619 634.332 156.544C634.026 156.449 633.752 156.381 633.525 156.339C633.462 156.323 633.401 156.309 633.344 156.298L631.991 152.986C632.951 153.16 633.951 153.156 634.901 152.93C635.539 152.777 636.059 152.315 636.28 151.701C636.957 149.804 637.145 147.933 636.724 146.087C636.589 145.501 636.395 144.937 636.146 144.394C635.62 143.249 634.852 142.199 633.88 141.244C633.411 140.782 632.741 140.603 632.101 140.756C630.487 141.129 629.051 142.126 628.074 143.399L628.025 143.277C628.001 143.207 627.973 143.138 627.941 143.072L626.021 138.373C625.641 137.449 624.944 136.707 624.207 136.22C623.471 135.707 622.529 135.348 621.526 135.348H616.071C615.01 135.348 614.149 136.219 614.149 137.27C614.149 138.322 615.01 139.193 616.071 139.193H621.526C621.608 139.193 621.817 139.244 622.064 139.398C622.312 139.577 622.432 139.757 622.463 139.833L623.345 141.995C620.379 142.142 618.035 144.618 618.078 147.625L618.247 158.732C618.18 159.344 617.664 159.826 617.038 159.826H614.578C613.77 159.826 613.031 159.364 612.673 158.647L610.988 155.238C610.632 154.513 610.169 153.866 609.624 153.31C609.727 153.214 609.828 153.113 609.925 153.007C611.079 151.777 611.631 150.085 611.627 148.317L611.61 142.242C611.605 140.474 611.047 138.808 609.885 137.578C608.71 136.322 607.064 135.656 605.218 135.656L595.777 135.682C593.933 135.682 592.291 136.348 591.122 137.63C590.613 138.171 590.22 138.797 589.941 139.479C589.586 140.346 589.414 141.304 589.416 142.294L589.434 148.368C589.436 150.137 589.996 151.802 591.156 153.059C591.536 153.465 591.966 153.81 592.435 154.089C590.568 155.946 589.411 158.518 589.411 161.362V167.77C589.411 168.821 590.272 169.692 591.334 169.692H593.831ZM606.33 169.692C605.707 171.457 604.026 172.717 602.065 172.717C600.087 172.717 598.414 171.457 597.796 169.692H606.33ZM595.575 165.848C595.619 165.848 595.662 165.848 595.706 165.848H608.422C608.466 165.848 608.51 165.848 608.554 165.848H622.479C622.658 165.848 622.834 165.771 622.969 165.642L625.201 163.644L629.926 159.39L629.93 159.364C630.156 159.158 630.233 158.851 630.115 158.569L624.913 145.832H623.626C622.675 145.832 621.909 146.6 621.923 147.549L622.092 158.774C622.093 158.804 622.092 158.834 622.091 158.863L622.09 158.927C621.924 161.592 619.709 163.67 617.038 163.67H614.578C612.308 163.67 610.234 162.387 609.226 160.337L607.541 156.928C606.945 155.723 605.718 154.955 604.374 154.955H599.654C596.12 154.955 593.256 157.826 593.256 161.362V165.848H595.575ZM626.274 167.854L625.541 168.513C625.284 168.741 625.005 168.939 624.707 169.105C625.132 171.171 626.95 172.717 629.138 172.717C631.623 172.717 633.66 170.692 633.66 168.18C633.66 166.234 632.386 164.543 630.612 163.939L629.134 165.273L630.596 166.976C631.286 167.796 631.194 169.001 630.388 169.692C629.582 170.384 628.368 170.282 627.677 169.487L626.274 167.854ZM632.988 149.241C633.151 148.402 633.133 147.649 632.978 146.958C632.822 146.287 632.509 145.605 632.001 144.919C631.656 145.145 631.331 145.444 631.066 145.805C630.816 146.146 630.658 146.474 630.576 146.778C630.489 147.091 630.483 147.377 630.538 147.625C630.642 148.06 631.012 148.547 631.731 148.906C632.124 149.087 632.559 149.199 632.988 149.241ZM605.226 139.501L595.785 139.527C594.893 139.527 594.31 139.833 593.939 140.244C593.556 140.654 593.258 141.32 593.261 142.294L593.278 148.368C593.28 149.342 593.58 150.009 593.964 150.419C594.333 150.829 594.918 151.11 595.819 151.11H605.259C606.155 151.11 606.737 150.804 607.104 150.393C607.197 150.294 607.285 150.18 607.365 150.05C607.614 149.642 607.785 149.082 607.783 148.342L607.765 142.267C607.763 141.294 607.462 140.628 607.078 140.218C606.708 139.808 606.125 139.501 605.226 139.501Z" fill="#D9D8DD" fill-opacity="0.3"/>
<path fill-rule="evenodd" clip-rule="evenodd" d="M357.36 481.38C356.932 481.174 356.348 481.105 355.584 481.4L348.696 484.058C348.696 484.058 348.696 484.058 348.696 484.058C347.931 484.353 347.55 484.795 347.377 485.228C347.195 485.679 347.158 486.331 347.48 487.156L347.485 487.17L349.129 491.473C349.449 492.291 349.921 492.751 350.368 492.966C350.799 493.173 351.384 493.241 352.141 492.948L359.032 490.289C359.032 490.289 359.032 490.289 359.032 490.289C359.795 489.994 360.177 489.553 360.35 489.12C360.532 488.667 360.569 488.014 360.247 487.19L360.243 487.179L358.599 482.88C358.598 482.879 358.598 482.877 358.597 482.875C358.275 482.053 357.805 481.594 357.36 481.38ZM359.029 477.916C360.497 478.624 361.57 479.916 362.181 481.485L362.185 481.496L363.831 485.799C364.441 487.365 364.524 489.04 363.919 490.551C363.304 492.082 362.062 493.241 360.416 493.876L353.527 496.534C351.886 497.168 350.187 497.145 348.702 496.431C347.234 495.725 346.157 494.434 345.544 492.863L345.54 492.851L343.896 488.548C343.286 486.981 343.202 485.306 343.809 483.795C344.424 482.263 345.667 481.106 347.311 480.472L354.199 477.813C354.199 477.813 354.199 477.813 354.199 477.813C355.844 477.178 357.542 477.2 359.029 477.916ZM331.417 488.323C331.717 487.304 332.785 486.721 333.803 487.02L339.137 488.586C339.701 488.751 340.157 489.165 340.378 489.709L351.368 516.845C351.411 516.843 351.455 516.841 351.498 516.84C353.06 516.793 354.485 517.43 355.482 518.481L374.518 510.851C375.504 510.456 376.623 510.934 377.018 511.92C377.413 512.905 376.934 514.024 375.949 514.419L356.92 522.047C356.943 524.902 354.666 527.248 351.809 527.333C348.915 527.415 346.475 525.149 346.392 522.238C346.348 520.765 346.917 519.419 347.867 518.44L337.163 492.013L332.72 490.709C331.702 490.41 331.118 489.342 331.417 488.323ZM350.894 520.899C350.482 521.157 350.219 521.617 350.235 522.125V522.128C350.257 522.892 350.901 523.513 351.697 523.49C352.491 523.465 353.098 522.808 353.075 522.045C353.052 521.278 352.406 520.659 351.612 520.683C351.461 520.687 351.317 520.714 351.183 520.761C351.103 520.808 351.019 520.849 350.931 520.885C350.918 520.89 350.906 520.894 350.894 520.899ZM364.529 499.074C364.102 498.868 363.517 498.799 362.753 499.094L355.866 501.753C355.865 501.753 355.866 501.753 355.866 501.753C355.101 502.048 354.719 502.49 354.546 502.922C354.365 503.373 354.327 504.026 354.649 504.851L354.655 504.864L356.298 509.167C356.618 509.986 357.09 510.446 357.537 510.661C357.968 510.868 358.553 510.935 359.31 510.642L366.201 507.984C366.201 507.984 366.201 507.984 366.201 507.984C366.965 507.689 367.346 507.247 367.52 506.815C367.701 506.363 367.738 505.71 367.417 504.884L367.412 504.873L365.768 500.575C365.767 500.573 365.767 500.571 365.766 500.57C365.445 499.748 364.974 499.289 364.529 499.074ZM366.198 495.611C367.666 496.318 368.739 497.611 369.351 499.179L369.355 499.19L370.999 503.488C371 503.49 371 503.493 371.001 503.494C371.61 505.06 371.694 506.735 371.088 508.246C370.473 509.778 369.23 510.935 367.586 511.57L360.697 514.228C359.055 514.863 357.357 514.84 355.871 514.125C354.403 513.419 353.326 512.129 352.714 510.557L352.709 510.545L351.066 506.243C350.455 504.676 350.372 503.001 350.978 501.49C351.593 499.958 352.837 498.801 354.481 498.166L361.368 495.508C363.013 494.873 364.712 494.895 366.198 495.611Z" fill="#D9D8DD" fill-opacity="0.3"/>
<path fill-rule="evenodd" clip-rule="evenodd" d="M262.107 229.776C260.271 229.776 258.781 231.265 258.781 233.103V254.005C258.781 255.384 259.601 256.573 260.78 257.108C261.703 254.425 264.249 252.497 267.245 252.497C270.353 252.497 272.976 254.571 273.806 257.41H284.121C284.773 255.181 286.53 253.423 288.76 252.771L288.76 233.183C288.76 233.183 288.76 233.183 288.76 233.183C288.76 231.302 287.234 229.776 285.353 229.776H262.107ZM292.604 252.771C294.833 253.424 296.591 255.181 297.243 257.41H297.663C297.663 257.41 297.663 257.41 297.663 257.41C299.544 257.41 301.07 255.884 301.07 254.004V249.024H296.837C295.776 249.024 294.915 248.163 294.915 247.102C294.915 246.04 295.776 245.18 296.837 245.18H301.07C301.07 243.541 300.102 242.057 298.606 241.397L292.604 238.749L292.604 252.771ZM292.605 234.547V233.183C292.605 229.179 289.358 225.932 285.353 225.932H262.107C258.149 225.932 254.936 229.141 254.936 233.103V254.005C254.936 257.478 257.378 260.381 260.639 261.09C261.414 264.013 264.078 266.167 267.245 266.167C270.353 266.167 272.976 264.093 273.806 261.254H284.121C284.951 264.093 287.574 266.167 290.682 266.167C293.789 266.167 296.412 264.094 297.242 261.255H297.663C301.667 261.255 304.914 258.008 304.914 254.004V245.179C304.914 242.019 303.049 239.154 300.157 237.879C300.157 237.879 300.157 237.879 300.157 237.879L292.605 234.547ZM274.681 236.299C275.43 235.547 276.647 235.544 277.399 236.293L281.454 240.331C281.816 240.691 282.02 241.181 282.02 241.692C282.02 241.774 282.015 241.855 282.005 241.935C281.947 242.398 281.724 242.811 281.398 243.111L277.4 247.096C276.648 247.846 275.431 247.844 274.682 247.092C273.932 246.34 273.934 245.123 274.686 244.374L275.444 243.618H267.442C266.38 243.618 265.52 242.757 265.52 241.696C265.52 240.634 266.38 239.773 267.442 239.773H275.446L274.687 239.018C273.934 238.269 273.932 237.052 274.681 236.299ZM267.245 256.342C265.594 256.342 264.255 257.681 264.255 259.332C264.255 260.984 265.594 262.322 267.245 262.322C268.897 262.322 270.235 260.984 270.235 259.332C270.235 257.681 268.897 256.342 267.245 256.342ZM290.682 256.342C289.03 256.342 287.691 257.681 287.691 259.332C287.691 260.984 289.03 262.322 290.682 262.322C292.333 262.322 293.672 260.984 293.672 259.332C293.672 257.681 292.333 256.342 290.682 256.342Z" fill="#D9D8DD" fill-opacity="0.3"/>
<path fill-rule="evenodd" clip-rule="evenodd" d="M921.59 319.093C917.19 319.093 913.624 322.659 913.624 327.056C913.624 331.453 917.19 335.021 921.59 335.021C925.986 335.021 929.552 331.453 929.552 327.056C929.552 322.659 925.987 319.093 921.59 319.093ZM909.78 327.056C909.78 320.535 915.067 315.249 921.59 315.249C928.11 315.249 933.397 320.535 933.397 327.056C933.397 333.576 928.111 338.866 921.59 338.866C915.067 338.866 909.78 333.576 909.78 327.056ZM935.508 322.268C935.508 321.206 936.369 320.346 937.43 320.346H940.209C944.211 320.346 947.455 323.591 947.455 327.594C947.455 327.594 947.455 327.594 947.455 327.594V328.961L955.001 332.29C955.001 332.29 955.001 332.29 955.001 332.29C957.893 333.566 959.756 336.428 959.756 339.585V341.418C959.757 341.447 959.758 341.477 959.758 341.506C959.758 341.536 959.757 341.565 959.756 341.594V348.406C959.756 352.409 956.512 355.654 952.51 355.654H952.091C951.26 358.491 948.638 360.564 945.533 360.564C942.428 360.564 939.806 358.491 938.975 355.654H928.667C927.837 358.491 925.216 360.564 922.109 360.564C918.943 360.564 916.279 358.409 915.504 355.487C912.246 354.776 909.807 351.876 909.807 348.404V340.559C909.807 339.497 910.667 338.637 911.729 338.637C912.791 338.637 913.651 339.497 913.651 340.559V348.404C913.651 349.783 914.47 350.97 915.648 351.505C916.572 348.825 919.116 346.9 922.109 346.9C925.216 346.9 927.837 348.973 928.667 351.809H938.975C939.627 349.582 941.384 347.826 943.611 347.174L943.61 330.257C943.61 330.228 943.61 330.198 943.61 330.169V327.594C943.61 325.713 942.086 324.19 940.209 324.19H937.43C936.369 324.19 935.508 323.329 935.508 322.268ZM947.455 333.163L947.455 347.174C949.683 347.826 951.439 349.582 952.091 351.81H952.51C954.388 351.81 955.912 350.287 955.912 348.406V343.428H951.684C950.622 343.428 949.762 342.568 949.762 341.506C949.762 340.445 950.622 339.584 951.684 339.584H955.912C955.911 337.949 954.946 336.468 953.45 335.808L947.455 333.163ZM921.589 322.011C922.651 322.011 923.511 322.872 923.511 323.933V325.136H924.712C925.773 325.136 926.634 325.996 926.634 327.058C926.634 328.12 925.773 328.98 924.712 328.98H923.511V330.18C923.511 331.242 922.651 332.102 921.589 332.102C920.528 332.102 919.667 331.242 919.667 330.18V328.98H918.465C917.403 328.98 916.543 328.12 916.543 327.058C916.543 325.996 917.403 325.136 918.465 325.136H919.667V323.933C919.667 322.872 920.528 322.011 921.589 322.011ZM922.109 350.744C920.46 350.744 919.121 352.083 919.121 353.732C919.121 355.381 920.46 356.72 922.109 356.72C923.759 356.72 925.096 355.381 925.096 353.732C925.096 352.082 923.759 350.744 922.109 350.744ZM945.533 350.744C943.884 350.744 942.545 352.083 942.545 353.732C942.545 355.381 943.884 356.72 945.533 356.72C947.182 356.72 948.521 355.381 948.521 353.732C948.521 352.083 947.182 350.744 945.533 350.744Z" fill="#D9D8DD" fill-opacity="0.3"/>
<path d="M447.35 33.417C450.442 32.1335 456.546 29.5128 459.686 28.2046C457.765 23.5492 455.883 18.9898 453.925 14.2432C455.484 13.6889 456.913 13.0411 458.41 12.6815C460.157 12.2652 461.662 13.0559 462.95 14.184C465.901 16.768 468.844 19.3593 471.729 22.0171C472.458 22.6896 473.034 22.7511 473.906 22.3694C476.414 21.2609 478.929 20.1598 481.505 19.2312C484.484 18.1548 488.725 18.0439 489.777 21.8003C490.61 24.7636 488.058 27.2884 485.543 28.3477C477.205 31.8651 468.852 35.3554 460.455 38.7252C454.472 41.1244 449.737 39.0282 447.2 33.0769C446.974 32.5448 446.102 30.4314 445.88 29.8944" stroke="#D9D8DD" stroke-opacity="0.3" stroke-width="3.84449" stroke-linecap="round" stroke-linejoin="round"/>
<path d="M450.664 51.7832H470.362" stroke="#D9D8DD" stroke-opacity="0.3" stroke-width="3.84449" stroke-linecap="round" stroke-linejoin="round"/>
<path fill-rule="evenodd" clip-rule="evenodd" d="M481.016 51.7835L479.068 52.1088C477.642 52.3476 476.383 51.1605 476.538 49.7242L476.757 47.7117C476.861 46.7437 477.267 45.83 477.917 45.1033L485.588 36.6544C486.59 35.5706 488.283 35.5065 489.366 36.5091L491.157 38.1669C492.241 39.1693 492.308 40.8616 491.303 41.9455L483.726 50.2908C483.019 51.0815 482.063 51.6087 481.016 51.7835Z" stroke="#D9D8DD" stroke-opacity="0.3" stroke-width="3.84449" stroke-linecap="round" stroke-linejoin="round"/>
<path d="M899.891 33.417C902.983 32.1335 909.087 29.5128 912.227 28.2046C910.306 23.5492 908.424 18.9898 906.466 14.2432C908.025 13.6889 909.454 13.0411 910.951 12.6815C912.698 12.2652 914.203 13.0559 915.491 14.184C918.442 16.768 921.385 19.3593 924.27 22.0171C924.999 22.6896 925.575 22.7511 926.447 22.3694C928.955 21.2609 931.47 20.1598 934.046 19.2312C937.025 18.1548 941.266 18.0439 942.318 21.8003C943.151 24.7636 940.599 27.2884 938.084 28.3477C929.746 31.8651 921.393 35.3554 912.996 38.7252C907.013 41.1244 902.278 39.0282 899.741 33.0769C899.515 32.5448 898.643 30.4314 898.421 29.8944" stroke="#D9D8DD" stroke-opacity="0.3" stroke-width="3.84449" stroke-linecap="round" stroke-linejoin="round"/>
<path d="M903.207 51.7832H922.905" stroke="#D9D8DD" stroke-opacity="0.3" stroke-width="3.84449" stroke-linecap="round" stroke-linejoin="round"/>
<path fill-rule="evenodd" clip-rule="evenodd" d="M933.557 51.7835L931.609 52.1088C930.183 52.3476 928.924 51.1605 929.079 49.7242L929.298 47.7117C929.402 46.7437 929.808 45.83 930.458 45.1033L938.129 36.6544C939.131 35.5706 940.824 35.5065 941.907 36.5091L943.698 38.1669C944.782 39.1693 944.849 40.8616 943.844 41.9455L936.267 50.2908C935.56 51.0815 934.604 51.6087 933.557 51.7835Z" stroke="#D9D8DD" stroke-opacity="0.3" stroke-width="3.84449" stroke-linecap="round" stroke-linejoin="round"/>
<path d="M1093.22 269.213C1096.32 267.93 1102.42 265.309 1105.56 264.001C1103.64 259.345 1101.76 254.786 1099.8 250.039C1101.36 249.485 1102.79 248.837 1104.28 248.478C1106.03 248.061 1107.54 248.852 1108.82 249.98C1111.77 252.564 1114.72 255.155 1117.6 257.813C1118.33 258.486 1118.91 258.547 1119.78 258.165C1122.29 257.057 1124.8 255.956 1127.38 255.027C1130.36 253.951 1134.6 253.84 1135.65 257.596C1136.48 260.56 1133.93 263.085 1131.42 264.144C1123.08 267.661 1114.73 271.152 1106.33 274.521C1100.34 276.921 1095.61 274.824 1093.07 268.873C1092.85 268.341 1091.97 266.228 1091.75 265.691" stroke="#D9D8DD" stroke-opacity="0.3" stroke-width="3.84449" stroke-linecap="round" stroke-linejoin="round"/>
<path d="M1096.54 287.578H1116.24" stroke="#D9D8DD" stroke-opacity="0.3" stroke-width="3.84449" stroke-linecap="round" stroke-linejoin="round"/>
<path fill-rule="evenodd" clip-rule="evenodd" d="M1126.89 287.577L1124.94 287.902C1123.51 288.141 1122.26 286.954 1122.41 285.518L1122.63 283.505C1122.73 282.537 1123.14 281.624 1123.79 280.897L1131.46 272.448C1132.46 271.364 1134.16 271.3 1135.24 272.303L1137.03 273.961C1138.11 274.963 1138.18 276.655 1137.18 277.739L1129.6 286.085C1128.89 286.875 1127.94 287.402 1126.89 287.577Z" stroke="#D9D8DD" stroke-opacity="0.3" stroke-width="3.84449" stroke-linecap="round" stroke-linejoin="round"/>
<path d="M1208.56 617.781C1211.65 616.497 1217.75 613.876 1220.89 612.568C1218.97 607.913 1217.09 603.353 1215.13 598.607C1216.69 598.052 1218.12 597.405 1219.62 597.045C1221.37 596.629 1222.87 597.419 1224.16 598.548C1227.11 601.131 1230.05 603.723 1232.94 606.381C1233.67 607.053 1234.24 607.115 1235.12 606.733C1237.62 605.624 1240.14 604.523 1242.71 603.595C1245.69 602.518 1249.93 602.407 1250.99 606.164C1251.82 609.127 1249.27 611.652 1246.75 612.711C1238.41 616.229 1230.06 619.719 1221.66 623.089C1215.68 625.488 1210.95 623.392 1208.41 617.44C1208.18 616.908 1207.31 614.795 1207.09 614.258" stroke="#D9D8DD" stroke-opacity="0.3" stroke-width="3.84449" stroke-linecap="round" stroke-linejoin="round"/>
<path d="M1211.87 636.146H1231.57" stroke="#D9D8DD" stroke-opacity="0.3" stroke-width="3.84449" stroke-linecap="round" stroke-linejoin="round"/>
<path fill-rule="evenodd" clip-rule="evenodd" d="M1242.22 636.146L1240.28 636.471C1238.85 636.71 1237.59 635.523 1237.75 634.086L1237.97 632.074C1238.07 631.106 1238.48 630.192 1239.13 629.466L1246.8 621.017C1247.8 619.933 1249.49 619.869 1250.58 620.871L1252.37 622.529C1253.45 623.532 1253.52 625.224 1252.51 626.308L1244.93 634.653C1244.23 635.444 1243.27 635.971 1242.22 636.146Z" stroke="#D9D8DD" stroke-opacity="0.3" stroke-width="3.84449" stroke-linecap="round" stroke-linejoin="round"/>
<path d="M1330.47 33.417C1333.56 32.1335 1339.67 29.5128 1342.81 28.2046C1340.89 23.5492 1339.01 18.9898 1337.05 14.2432C1338.61 13.6889 1340.04 13.0411 1341.53 12.6815C1343.28 12.2652 1344.78 13.0559 1346.07 14.184C1349.02 16.768 1351.97 19.3593 1354.85 22.0171C1355.58 22.6896 1356.16 22.7511 1357.03 22.3694C1359.54 21.2609 1362.05 20.1598 1364.63 19.2312C1367.61 18.1548 1371.85 18.0439 1372.9 21.8003C1373.73 24.7636 1371.18 27.2884 1368.67 28.3477C1360.33 31.8651 1351.98 35.3554 1343.58 38.7252C1337.59 41.1244 1332.86 39.0282 1330.32 33.0769C1330.1 32.5448 1329.22 30.4314 1329 29.8944" stroke="#D9D8DD" stroke-opacity="0.3" stroke-width="3.84449" stroke-linecap="round" stroke-linejoin="round"/>
<path d="M1333.79 51.7832H1353.49" stroke="#D9D8DD" stroke-opacity="0.3" stroke-width="3.84449" stroke-linecap="round" stroke-linejoin="round"/>
<path fill-rule="evenodd" clip-rule="evenodd" d="M1364.14 51.7835L1362.19 52.1088C1360.76 52.3476 1359.51 51.1605 1359.66 49.7242L1359.88 47.7117C1359.98 46.7437 1360.39 45.83 1361.04 45.1033L1368.71 36.6544C1369.71 35.5706 1371.41 35.5065 1372.49 36.5091L1374.28 38.1669C1375.36 39.1693 1375.43 40.8616 1374.43 41.9455L1366.85 50.2908C1366.14 51.0815 1365.19 51.6087 1364.14 51.7835Z" stroke="#D9D8DD" stroke-opacity="0.3" stroke-width="3.84449" stroke-linecap="round" stroke-linejoin="round"/>
<path d="M-3.94769 173.731L1.37087 174.651L3.83327 203.988C4.03016 206.381 6.03485 208.222 8.43589 208.215H38.8872" stroke="#D9D8DD" stroke-opacity="0.3" stroke-width="3.84449" stroke-linecap="round" stroke-linejoin="round"/>
<path d="M28.4261 173.731L28.4489 184.542L24.4422 183.235L20.4124 184.565L20.3996 173.767" stroke="#D9D8DD" stroke-opacity="0.3" stroke-width="3.84449" stroke-linecap="round" stroke-linejoin="round"/>
<path fill-rule="evenodd" clip-rule="evenodd" d="M30.3576 173.731L18.4369 173.759C14.2844 173.769 11.6863 176.715 11.6965 180.878L11.7221 192.108C11.7324 196.271 14.3302 199.206 18.4982 199.196L30.4163 199.168C34.5843 199.158 37.1693 196.212 37.1591 192.049L37.1337 180.819C37.1234 176.656 34.5256 173.721 30.3576 173.731Z" stroke="#D9D8DD" stroke-opacity="0.3" stroke-width="3.84449" stroke-linecap="round" stroke-linejoin="round"/>
<path d="M7.1715 218.441V218.744M8.39856 218.506C8.39856 219.188 7.84557 219.74 7.16396 219.74C6.48236 219.74 5.93011 219.188 5.93011 218.506C5.93011 217.825 6.48236 217.272 7.16396 217.272C7.84557 217.272 8.39856 217.825 8.39856 218.506Z" stroke="#D9D8DD" stroke-opacity="0.3" stroke-width="3.84449" stroke-linecap="round" stroke-linejoin="round"/>
<path d="M36.3291 218.441V218.744M37.5563 218.506C37.5563 219.188 37.0032 219.74 36.3217 219.74C35.64 219.74 35.0879 219.188 35.0879 218.506C35.0879 217.825 35.64 217.272 36.3217 217.272C37.0032 217.272 37.5563 217.825 37.5563 218.506Z" stroke="#D9D8DD" stroke-opacity="0.3" stroke-width="3.84449" stroke-linecap="round" stroke-linejoin="round"/>
<path d="M1274.07 210.636L1273.93 210.635C1270.99 210.635 1268.6 208.249 1268.6 205.307V198.868" stroke="#D9D8DD" stroke-opacity="0.3" stroke-width="3.84449" stroke-linecap="round" stroke-linejoin="round"/>
<path fill-rule="evenodd" clip-rule="evenodd" d="M1283.9 210.635C1283.9 207.922 1281.7 205.723 1278.99 205.723C1276.28 205.723 1274.08 207.922 1274.08 210.635C1274.08 213.349 1276.28 215.548 1278.99 215.548C1281.7 215.548 1283.9 213.349 1283.9 210.635Z" stroke="#D9D8DD" stroke-opacity="0.3" stroke-width="3.84449" stroke-linecap="round" stroke-linejoin="round"/>
<path fill-rule="evenodd" clip-rule="evenodd" d="M1307.33 210.635C1307.33 207.922 1305.13 205.723 1302.42 205.723C1299.71 205.723 1297.51 207.922 1297.51 210.635C1297.51 213.349 1299.71 215.548 1302.42 215.548C1305.13 215.548 1307.33 213.349 1307.33 210.635Z" stroke="#D9D8DD" stroke-opacity="0.3" stroke-width="3.84449" stroke-linecap="round" stroke-linejoin="round"/>
<path d="M1283.9 210.634H1297.51" stroke="#D9D8DD" stroke-opacity="0.3" stroke-width="3.84449" stroke-linecap="round" stroke-linejoin="round"/>
<path d="M1302.42 205.723L1302.42 184.484C1302.42 181.541 1300.04 179.155 1297.1 179.155H1268.6" stroke="#D9D8DD" stroke-opacity="0.3" stroke-width="3.84449" stroke-linecap="round" stroke-linejoin="round"/>
<path d="M1268.6 191.508H1280.01M1273.44 185.332H1280.01" stroke="#D9D8DD" stroke-opacity="0.3" stroke-width="3.84449" stroke-linecap="round" stroke-linejoin="round"/>
<path d="M1307.33 210.633L1309.4 210.634C1312.35 210.634 1314.73 208.247 1314.73 205.305V196.479C1314.73 194.08 1313.32 191.906 1311.12 190.939L1302.42 187.101" stroke="#D9D8DD" stroke-opacity="0.3" stroke-width="3.84449" stroke-linecap="round" stroke-linejoin="round"/>
<path d="M1308.57 198.405H1314.73" stroke="#D9D8DD" stroke-opacity="0.3" stroke-width="3.84449" stroke-linecap="round" stroke-linejoin="round"/>
<path d="M1335.58 1161.5L1335.44 1161.5C1332.5 1161.5 1330.11 1159.12 1330.11 1156.18V1149.74" stroke="#D9D8DD" stroke-opacity="0.3" stroke-width="3.84449" stroke-linecap="round" stroke-linejoin="round"/>
<path fill-rule="evenodd" clip-rule="evenodd" d="M1345.41 1161.5C1345.41 1158.79 1343.21 1156.59 1340.5 1156.59C1337.79 1156.59 1335.59 1158.79 1335.59 1161.5C1335.59 1164.22 1337.79 1166.42 1340.5 1166.42C1343.21 1166.42 1345.41 1164.22 1345.41 1161.5Z" stroke="#D9D8DD" stroke-opacity="0.3" stroke-width="3.84449" stroke-linecap="round" stroke-linejoin="round"/>
<path fill-rule="evenodd" clip-rule="evenodd" d="M1368.85 1161.5C1368.85 1158.79 1366.65 1156.59 1363.93 1156.59C1361.22 1156.59 1359.02 1158.79 1359.02 1161.5C1359.02 1164.22 1361.22 1166.42 1363.93 1166.42C1366.65 1166.42 1368.85 1164.22 1368.85 1161.5Z" stroke="#D9D8DD" stroke-opacity="0.3" stroke-width="3.84449" stroke-linecap="round" stroke-linejoin="round"/>
<path d="M1345.41 1161.5H1359.02" stroke="#D9D8DD" stroke-opacity="0.3" stroke-width="3.84449" stroke-linecap="round" stroke-linejoin="round"/>
<path d="M1363.93 1156.59L1363.93 1135.35C1363.93 1132.41 1361.55 1130.02 1358.61 1130.02H1330.11" stroke="#D9D8DD" stroke-opacity="0.3" stroke-width="3.84449" stroke-linecap="round" stroke-linejoin="round"/>
<path d="M1330.11 1142.38H1341.52M1334.95 1136.2H1341.52" stroke="#D9D8DD" stroke-opacity="0.3" stroke-width="3.84449" stroke-linecap="round" stroke-linejoin="round"/>
<path d="M1368.84 1161.5L1370.91 1161.5C1373.86 1161.5 1376.24 1159.12 1376.24 1156.17V1147.35C1376.24 1144.95 1374.83 1142.78 1372.63 1141.81L1363.93 1137.97" stroke="#D9D8DD" stroke-opacity="0.3" stroke-width="3.84449" stroke-linecap="round" stroke-linejoin="round"/>
<path d="M1370.09 1149.27H1376.24" stroke="#D9D8DD" stroke-opacity="0.3" stroke-width="3.84449" stroke-linecap="round" stroke-linejoin="round"/>
<path fill-rule="evenodd" clip-rule="evenodd" d="M328.257 908.991C323.857 908.991 320.292 912.557 320.292 916.953C320.292 921.351 323.858 924.919 328.257 924.919C332.654 924.919 336.22 921.351 336.22 916.953C336.22 912.556 332.654 908.991 328.257 908.991ZM316.447 916.953C316.447 910.433 321.735 905.146 328.257 905.146C334.778 905.146 340.064 910.433 340.064 916.953C340.064 923.473 334.778 928.763 328.257 928.763C321.734 928.763 316.447 923.473 316.447 916.953ZM342.176 912.165C342.176 911.104 343.036 910.243 344.098 910.243H346.876C350.878 910.243 354.122 913.488 354.122 917.492C354.122 917.492 354.122 917.492 354.122 917.492V918.859L361.669 922.188C361.669 922.188 361.669 922.188 361.669 922.188C364.561 923.463 366.424 926.326 366.424 929.483V931.316C366.425 931.345 366.426 931.374 366.426 931.404C366.426 931.433 366.425 931.463 366.424 931.492V938.303C366.424 942.307 363.18 945.552 359.178 945.552H358.759C357.928 948.389 355.306 950.462 352.201 950.462C349.096 950.462 346.473 948.388 345.643 945.552H335.334C334.504 948.388 331.884 950.462 328.776 950.462C325.61 950.462 322.946 948.307 322.171 945.384C318.913 944.674 316.474 941.773 316.474 938.302V930.457C316.474 929.395 317.335 928.534 318.397 928.534C319.458 928.534 320.319 929.395 320.319 930.457V938.302C320.319 939.68 321.137 940.867 322.315 941.402C323.239 938.723 325.784 936.797 328.776 936.797C331.884 936.797 334.504 938.871 335.334 941.707H345.643C346.295 939.48 348.051 937.724 350.278 937.071L350.278 920.155C350.277 920.125 350.277 920.096 350.278 920.066V917.492C350.278 915.61 348.754 914.088 346.876 914.088H344.098C343.036 914.088 342.176 913.227 342.176 912.165ZM354.122 923.061L354.123 937.071C356.35 937.724 358.107 939.48 358.759 941.707H359.178C361.055 941.707 362.579 940.185 362.579 938.303V933.326H358.352C357.29 933.326 356.429 932.465 356.429 931.404C356.429 930.342 357.29 929.482 358.352 929.482H362.579C362.579 927.846 361.614 926.365 360.118 925.706L354.122 923.061ZM328.257 911.909C329.318 911.909 330.179 912.769 330.179 913.831V915.033H331.379C332.441 915.033 333.301 915.894 333.301 916.955C333.301 918.017 332.441 918.878 331.379 918.878H330.179V920.078C330.179 921.139 329.318 922 328.257 922C327.195 922 326.335 921.139 326.335 920.078V918.878H325.132C324.071 918.878 323.21 918.017 323.21 916.955C323.21 915.894 324.071 915.033 325.132 915.033H326.335V913.831C326.335 912.769 327.195 911.909 328.257 911.909ZM328.776 940.642C327.127 940.642 325.788 941.98 325.788 943.629C325.788 945.278 327.127 946.617 328.776 946.617C330.427 946.617 331.764 945.279 331.764 943.629C331.764 941.98 330.427 940.642 328.776 940.642ZM352.201 940.642C350.552 940.642 349.213 941.98 349.213 943.629C349.213 945.278 350.552 946.617 352.201 946.617C353.85 946.617 355.189 945.278 355.189 943.629C355.189 941.98 353.85 940.642 352.201 940.642Z" fill="#D9D8DD" fill-opacity="0.3"/>
<path fill-rule="evenodd" clip-rule="evenodd" d="M64.0727 628.93C63.6449 628.724 63.0603 628.655 62.2963 628.95L55.4087 631.608C55.4087 631.608 55.4087 631.608 55.4087 631.608C54.644 631.903 54.2627 632.345 54.0891 632.777C53.908 633.229 53.8703 633.881 54.1927 634.706L54.198 634.72L55.8414 639.022C56.1617 639.841 56.6331 640.301 57.0803 640.516C57.5114 640.723 58.0963 640.791 58.8534 640.498L65.7443 637.839C65.7443 637.839 65.7445 637.839 65.7443 637.839C66.5078 637.544 66.8891 637.103 67.0627 636.669C67.2441 636.217 67.2815 635.564 66.9599 634.74L66.9555 634.728L65.3114 630.43C65.3109 630.429 65.3101 630.427 65.3096 630.425C64.9879 629.603 64.5173 629.144 64.0727 628.93ZM65.7412 625.466C67.2093 626.173 68.2824 627.466 68.8937 629.035L68.898 629.046L70.544 633.349C71.1532 634.915 71.237 636.59 70.6311 638.1C70.0168 639.632 68.7742 640.79 67.129 641.426L60.24 644.084C58.5984 644.718 56.8996 644.695 55.4146 643.981C53.9464 643.275 52.8692 641.984 52.2569 640.412L52.2523 640.401L50.6089 636.098C49.9987 634.531 49.9148 632.856 50.5214 631.345C51.1364 629.813 52.38 628.656 54.0239 628.021L60.9115 625.363C60.9115 625.363 60.9117 625.363 60.9115 625.363C62.5564 624.728 64.2549 624.75 65.7412 625.466ZM38.13 635.873C38.4291 634.854 39.4973 634.271 40.516 634.57L45.85 636.136C46.4131 636.301 46.8698 636.715 47.0901 637.259L58.0809 664.395C58.124 664.393 58.1673 664.391 58.2106 664.39C59.7722 664.343 61.1978 664.98 62.1948 666.031L81.2309 658.4C82.2164 658.005 83.3354 658.484 83.7303 659.469C84.1253 660.455 83.6468 661.574 82.6613 661.969L63.6326 669.597C63.6557 672.452 61.379 674.798 58.5217 674.883C55.6279 674.965 53.188 672.699 53.1044 669.788C53.0607 668.314 53.6298 666.969 54.5791 665.99L43.8756 639.563L39.4329 638.259C38.4143 637.96 37.831 636.891 38.13 635.873ZM57.6065 668.449C57.1949 668.707 56.9319 669.167 56.9473 669.675V669.678C56.9691 670.442 57.6137 671.063 58.41 671.04C59.2035 671.015 59.8104 670.358 59.7876 669.595C59.7645 668.828 59.1187 668.209 58.3246 668.232C58.1737 668.237 58.0294 668.264 57.8951 668.311C57.8154 668.357 57.7313 668.399 57.6431 668.435C57.6308 668.439 57.6185 668.444 57.6065 668.449ZM71.2419 646.624C70.8144 646.418 70.2297 646.349 69.4657 646.644L62.5782 649.303C62.5779 649.303 62.5782 649.302 62.5782 649.303C61.8134 649.598 61.432 650.039 61.2585 650.472C61.0773 650.923 61.0396 651.575 61.362 652.401L61.3674 652.414L63.0106 656.717C63.3309 657.536 63.8025 657.995 64.2498 658.21C64.6809 658.418 65.2657 658.485 66.0226 658.192L72.9137 655.534C72.9135 655.534 72.914 655.534 72.9137 655.534C73.678 655.238 74.0589 654.797 74.2321 654.365C74.4133 653.913 74.451 653.26 74.1291 652.434L74.1247 652.423L72.4808 648.125C72.4801 648.123 72.4795 648.121 72.4788 648.12C72.1574 647.298 71.6868 646.839 71.2419 646.624ZM72.9104 643.161C74.3787 643.868 75.4518 645.161 76.0631 646.729L76.0672 646.74L77.7114 651.038C77.7121 651.04 77.7129 651.042 77.7137 651.044C78.3224 652.61 78.4065 654.285 77.8003 655.796C77.1857 657.328 75.9429 658.485 74.2985 659.12L67.4094 661.778C65.7673 662.413 64.0693 662.389 62.5838 661.675C61.1157 660.969 60.0385 659.679 59.4262 658.107L59.4216 658.095L57.7782 653.792C57.168 652.226 57.0842 650.55 57.6908 649.04C58.3057 647.508 59.5492 646.351 61.1934 645.716L68.0809 643.058C69.7259 642.423 71.4244 642.445 72.9104 643.161Z" fill="#D9D8DD" fill-opacity="0.3"/>
<path fill-rule="evenodd" clip-rule="evenodd" d="M543.086 793.641C545.987 793.555 548.419 795.828 548.506 798.732C548.593 801.639 546.293 804.048 543.397 804.134C540.503 804.216 538.063 801.95 537.98 799.04C537.893 796.133 540.19 793.727 543.086 793.641ZM543.2 797.484C542.405 797.507 541.8 798.163 541.823 798.926C541.844 799.69 542.488 800.313 543.284 800.291C544.078 800.267 544.686 799.609 544.663 798.846C544.64 798.079 543.994 797.46 543.2 797.484Z" fill="#D9D8DD" fill-opacity="0.3"/>
<path fill-rule="evenodd" clip-rule="evenodd" d="M523.006 765.127C523.305 764.108 524.373 763.525 525.391 763.824L530.725 765.39C531.289 765.555 531.745 765.969 531.966 766.513L543.579 795.185C543.977 796.17 543.503 797.29 542.519 797.689C541.535 798.087 540.414 797.613 540.015 796.629L528.751 768.817L524.308 767.513C523.29 767.214 522.706 766.146 523.006 765.127Z" fill="#D9D8DD" fill-opacity="0.3"/>
<path fill-rule="evenodd" clip-rule="evenodd" d="M568.607 788.721C569.002 789.706 568.524 790.825 567.538 791.22L547.065 799.427C546.08 799.822 544.961 799.344 544.566 798.358C544.171 797.373 544.649 796.254 545.635 795.859L566.108 787.652C567.093 787.257 568.212 787.735 568.607 788.721Z" fill="#D9D8DD" fill-opacity="0.3"/>
<path fill-rule="evenodd" clip-rule="evenodd" d="M550.228 761.754C549.8 761.548 549.216 761.479 548.452 761.774L541.564 764.432C541.564 764.432 541.564 764.432 541.564 764.432C540.8 764.728 540.418 765.169 540.245 765.602C540.064 766.051 540.026 766.699 540.343 767.518L547.881 785.964C548.202 786.787 548.674 787.248 549.122 787.464C549.553 787.671 550.138 787.738 550.895 787.446L557.786 784.787C558.55 784.492 558.931 784.05 559.105 783.618C559.285 783.169 559.323 782.52 559.007 781.7L551.467 763.255C551.145 762.43 550.674 761.969 550.228 761.754ZM555.043 761.843C554.431 760.282 553.36 758.996 551.897 758.291C550.411 757.575 548.712 757.553 547.067 758.188C547.067 758.188 547.067 758.188 547.067 758.188L540.18 760.846C538.536 761.481 537.292 762.638 536.677 764.17C536.069 765.683 536.155 767.361 536.767 768.93L544.305 787.376C544.918 788.94 545.993 790.225 547.456 790.928C548.942 791.643 550.64 791.666 552.282 791.031L559.171 788.373C560.815 787.739 562.058 786.581 562.673 785.049C563.28 783.537 563.195 781.859 562.584 780.292L555.043 761.843Z" fill="#D9D8DD" fill-opacity="0.3"/>
<path fill-rule="evenodd" clip-rule="evenodd" d="M550.101 766.204C550.483 767.194 549.991 768.307 549 768.689L545.988 769.852C544.998 770.234 543.885 769.741 543.502 768.75C543.12 767.76 543.613 766.647 544.604 766.265L547.616 765.102C548.606 764.72 549.719 765.213 550.101 766.204Z" fill="#D9D8DD" fill-opacity="0.3"/>
<path d="M775.903 1119.59C775.903 1118.54 776.764 1117.67 777.825 1117.67H782.026C782.67 1117.67 783.238 1117.99 783.587 1118.47C783.815 1118.79 783.949 1119.17 783.949 1119.59C783.949 1120.67 783.089 1121.51 782.026 1121.51H777.825C776.764 1121.51 775.903 1120.67 775.903 1119.59Z" fill="#D9D8DD" fill-opacity="0.3"/>
<path fill-rule="evenodd" clip-rule="evenodd" d="M773.241 1146.19C773.95 1150.11 777.36 1153.06 781.475 1153.06C785.563 1153.06 788.992 1150.11 789.706 1146.19H800.314C801.023 1150.11 804.435 1153.06 808.548 1153.06C813.148 1153.06 816.915 1149.32 816.915 1144.68C816.915 1141.66 815.284 1139 812.858 1137.54C812.97 1137.34 813.068 1137.12 813.148 1136.9C813.945 1137.24 814.755 1137.75 815.273 1138.53C815.857 1139.4 817.05 1139.66 817.936 1139.07C818.822 1138.48 819.066 1137.3 818.482 1136.4C817.362 1134.71 815.744 1133.79 814.522 1133.33C814.247 1133.21 813.984 1133.12 813.742 1133.04C813.436 1132.95 813.162 1132.88 812.935 1132.84C812.872 1132.82 812.811 1132.81 812.754 1132.8L811.401 1129.49C812.361 1129.66 813.361 1129.66 814.311 1129.43C814.949 1129.28 815.469 1128.82 815.69 1128.2C816.367 1126.3 816.555 1124.43 816.134 1122.59C815.999 1122 815.805 1121.44 815.556 1120.89C815.03 1119.75 814.262 1118.7 813.29 1117.74C812.821 1117.28 812.151 1117.1 811.511 1117.26C809.897 1117.63 808.461 1118.63 807.484 1119.9L807.435 1119.78C807.411 1119.71 807.383 1119.64 807.351 1119.57L805.431 1114.87C805.051 1113.95 804.354 1113.21 803.617 1112.72C802.881 1112.21 801.939 1111.85 800.936 1111.85H795.481C794.42 1111.85 793.559 1112.72 793.559 1113.77C793.559 1114.82 794.42 1115.69 795.481 1115.69H800.936C801.018 1115.69 801.227 1115.74 801.474 1115.9C801.722 1116.08 801.842 1116.26 801.873 1116.33L802.755 1118.49C799.789 1118.64 797.445 1121.12 797.488 1124.12L797.657 1135.23C797.59 1135.84 797.074 1136.33 796.448 1136.33H793.988C793.18 1136.33 792.441 1135.86 792.083 1135.15L790.398 1131.74C790.042 1131.01 789.579 1130.37 789.034 1129.81C789.137 1129.71 789.238 1129.61 789.335 1129.51C790.489 1128.28 791.041 1126.59 791.037 1124.82L791.02 1118.74C791.015 1116.97 790.457 1115.31 789.295 1114.08C788.12 1112.82 786.474 1112.16 784.628 1112.16L775.187 1112.18C773.343 1112.18 771.701 1112.85 770.532 1114.13C770.023 1114.67 769.63 1115.3 769.351 1115.98C768.996 1116.85 768.824 1117.8 768.826 1118.79L768.844 1124.87C768.846 1126.64 769.406 1128.3 770.566 1129.56C770.946 1129.97 771.375 1130.31 771.845 1130.59C769.978 1132.45 768.821 1135.02 768.821 1137.86V1144.27C768.821 1145.32 769.682 1146.19 770.743 1146.19H773.241ZM785.74 1146.19C785.117 1147.96 783.436 1149.22 781.475 1149.22C779.497 1149.22 777.824 1147.96 777.206 1146.19H785.74ZM774.985 1142.35C775.028 1142.35 775.072 1142.35 775.116 1142.35H787.832C787.876 1142.35 787.92 1142.35 787.964 1142.35H801.889C802.067 1142.35 802.244 1142.27 802.379 1142.14L804.61 1140.14L809.336 1135.89L809.34 1135.86C809.566 1135.66 809.643 1135.35 809.525 1135.07L804.323 1122.33H803.036C802.085 1122.33 801.319 1123.1 801.333 1124.05L801.502 1135.27C801.503 1135.3 801.502 1135.33 801.501 1135.36L801.5 1135.43C801.334 1138.09 799.119 1140.17 796.448 1140.17H793.988C791.718 1140.17 789.644 1138.89 788.636 1136.84L786.951 1133.43C786.355 1132.22 785.128 1131.45 783.784 1131.45H779.064C775.53 1131.45 772.666 1134.33 772.666 1137.86V1142.35H774.985ZM805.684 1144.35L804.951 1145.01C804.694 1145.24 804.415 1145.44 804.117 1145.6C804.542 1147.67 806.36 1149.22 808.548 1149.22C811.033 1149.22 813.07 1147.19 813.07 1144.68C813.07 1142.73 811.796 1141.04 810.022 1140.44L808.544 1141.77L810.006 1143.48C810.696 1144.3 810.604 1145.5 809.798 1146.19C808.992 1146.88 807.778 1146.78 807.087 1145.99L805.684 1144.35ZM812.398 1125.74C812.561 1124.9 812.543 1124.15 812.388 1123.46C812.232 1122.79 811.919 1122.11 811.411 1121.42C811.066 1121.64 810.741 1121.94 810.476 1122.31C810.226 1122.65 810.068 1122.97 809.986 1123.28C809.899 1123.59 809.893 1123.88 809.948 1124.12C810.052 1124.56 810.422 1125.05 811.141 1125.41C811.534 1125.59 811.969 1125.7 812.398 1125.74ZM784.636 1116L775.195 1116.03C774.303 1116.03 773.719 1116.33 773.349 1116.74C772.966 1117.15 772.668 1117.82 772.671 1118.79L772.688 1124.87C772.69 1125.84 772.99 1126.51 773.374 1126.92C773.743 1127.33 774.328 1127.61 775.229 1127.61H784.668C785.565 1127.61 786.146 1127.3 786.514 1126.89C786.607 1126.79 786.695 1126.68 786.775 1126.55C787.024 1126.14 787.195 1125.58 787.193 1124.84L787.175 1118.77C787.173 1117.79 786.872 1117.13 786.488 1116.72C786.118 1116.31 785.535 1116 784.636 1116Z" fill="#D9D8DD" fill-opacity="0.3"/>
<path fill-rule="evenodd" clip-rule="evenodd" d="M494.655 628.93C494.227 628.724 493.642 628.655 492.878 628.95L485.991 631.608C485.991 631.608 485.991 631.608 485.991 631.608C485.226 631.903 484.845 632.345 484.671 632.777C484.49 633.229 484.452 633.881 484.775 634.706L484.78 634.72L486.423 639.022C486.744 639.841 487.215 640.301 487.662 640.516C488.094 640.723 488.678 640.791 489.435 640.498L496.326 637.839C496.326 637.839 496.327 637.839 496.326 637.839C497.09 637.544 497.471 637.103 497.645 636.669C497.826 636.217 497.864 635.564 497.542 634.74L497.538 634.728L495.893 630.43C495.893 630.429 495.892 630.427 495.892 630.425C495.57 629.603 495.099 629.144 494.655 628.93ZM496.323 625.466C497.791 626.173 498.864 627.466 499.476 629.035L499.48 629.046L501.126 633.349C501.735 634.915 501.819 636.59 501.213 638.1C500.599 639.632 499.356 640.79 497.711 641.426L490.822 644.084C489.18 644.718 487.482 644.695 485.997 643.981C484.528 643.275 483.451 641.984 482.839 640.412L482.834 640.401L481.191 636.098C480.581 634.531 480.497 632.856 481.103 631.345C481.718 629.813 482.962 628.656 484.606 628.021L491.494 625.363C491.494 625.363 491.494 625.363 491.494 625.363C493.138 624.728 494.837 624.75 496.323 625.466ZM468.712 635.873C469.011 634.854 470.079 634.271 471.098 634.57L476.432 636.136C476.995 636.301 477.452 636.715 477.672 637.259L488.663 664.395C488.706 664.393 488.749 664.391 488.793 664.39C490.354 664.343 491.78 664.98 492.777 666.031L511.813 658.4C512.798 658.005 513.917 658.484 514.312 659.469C514.707 660.455 514.229 661.574 513.243 661.969L494.215 669.597C494.238 672.452 491.961 674.798 489.104 674.883C486.21 674.965 483.77 672.699 483.686 669.788C483.643 668.314 484.212 666.969 485.161 665.99L474.458 639.563L470.015 638.259C468.996 637.96 468.413 636.891 468.712 635.873ZM488.189 668.449C487.777 668.707 487.514 669.167 487.529 669.675V669.678C487.551 670.442 488.196 671.063 488.992 671.04C489.786 671.015 490.393 670.358 490.37 669.595C490.347 668.828 489.701 668.209 488.907 668.232C488.756 668.237 488.611 668.264 488.477 668.311C488.397 668.357 488.313 668.399 488.225 668.435C488.213 668.439 488.201 668.444 488.189 668.449ZM501.824 646.624C501.396 646.418 500.812 646.349 500.048 646.644L493.16 649.303C493.16 649.303 493.16 649.302 493.16 649.303C492.395 649.598 492.014 650.039 491.841 650.472C491.659 650.923 491.622 651.575 491.944 652.401L491.95 652.414L493.593 656.717C493.913 657.536 494.385 657.995 494.832 658.21C495.263 658.418 495.848 658.485 496.605 658.192L503.496 655.534C503.496 655.534 503.496 655.534 503.496 655.534C504.26 655.238 504.641 654.797 504.814 654.365C504.995 653.913 505.033 653.26 504.711 652.434L504.707 652.423L503.063 648.125C503.062 648.123 503.062 648.121 503.061 648.12C502.739 647.298 502.269 646.839 501.824 646.624ZM503.492 643.161C504.961 643.868 506.034 645.161 506.645 646.729L506.649 646.74L508.293 651.038C508.294 651.04 508.295 651.042 508.296 651.044C508.904 652.61 508.989 654.285 508.382 655.796C507.768 657.328 506.525 658.485 504.881 659.12L497.992 661.778C496.349 662.413 494.651 662.389 493.166 661.675C491.698 660.969 490.621 659.679 490.008 658.107L490.004 658.095L488.36 653.792C487.75 652.226 487.666 650.55 488.273 649.04C488.888 647.508 490.131 646.351 491.775 645.716L498.663 643.058C500.308 642.423 502.006 642.445 503.492 643.161Z" fill="#D9D8DD" fill-opacity="0.3"/>
<path fill-rule="evenodd" clip-rule="evenodd" d="M608.11 350.236C606.273 350.236 604.783 351.725 604.783 353.563V374.465C604.783 375.845 605.604 377.033 606.783 377.568C607.706 374.885 610.252 372.958 613.248 372.958C616.355 372.958 618.978 375.031 619.808 377.87H630.123C630.776 375.641 632.533 373.884 634.762 373.232L634.763 353.643C634.763 353.643 634.763 353.643 634.763 353.643C634.763 351.762 633.237 350.236 631.356 350.236H608.11ZM638.607 373.232C640.836 373.884 642.593 375.641 643.245 377.871H643.666C643.666 377.871 643.666 377.871 643.666 377.871C645.546 377.87 647.072 376.345 647.072 374.464V369.484H642.84C641.778 369.484 640.917 368.624 640.917 367.562C640.917 366.5 641.778 365.64 642.84 365.64H647.072C647.072 364.002 646.105 362.517 644.608 361.857L638.607 359.209L638.607 373.232ZM638.607 355.007V353.643C638.607 349.639 635.36 346.392 631.356 346.392H608.11C604.151 346.392 600.939 349.601 600.939 353.563V374.465C600.939 377.938 603.381 380.841 606.641 381.551C607.417 384.473 610.081 386.627 613.248 386.627C616.355 386.627 618.978 384.554 619.808 381.715H630.123C630.954 384.554 633.577 386.627 636.684 386.627C639.792 386.627 642.414 384.554 643.245 381.715H643.665C647.669 381.715 650.917 378.468 650.917 374.464V365.639C650.917 362.479 649.052 359.615 646.16 358.339C646.16 358.339 646.16 358.339 646.16 358.339L638.607 355.007ZM620.683 356.76C621.432 356.007 622.649 356.005 623.402 356.754L627.456 360.791C627.819 361.151 628.022 361.641 628.023 362.153C628.023 362.234 628.017 362.315 628.007 362.395C627.95 362.859 627.727 363.271 627.4 363.571L623.403 367.557C622.651 368.306 621.434 368.304 620.684 367.552C619.935 366.8 619.937 365.584 620.688 364.834L621.447 364.078H613.444C612.383 364.078 611.522 363.217 611.522 362.156C611.522 361.094 612.383 360.234 613.444 360.234H621.448L620.689 359.478C619.937 358.729 619.934 357.512 620.683 356.76ZM613.248 376.802C611.596 376.802 610.257 378.141 610.257 379.792C610.257 381.444 611.596 382.783 613.248 382.783C614.899 382.783 616.238 381.444 616.238 379.792C616.238 378.141 614.899 376.802 613.248 376.802ZM636.684 376.802C635.033 376.802 633.694 378.141 633.694 379.792C633.694 381.444 635.033 382.783 636.684 382.783C638.336 382.783 639.674 381.444 639.674 379.792C639.674 378.141 638.336 376.802 636.684 376.802Z" fill="#D9D8DD" fill-opacity="0.3"/>
<path d="M808.732 758.745C811.824 757.461 817.927 754.84 821.068 753.532C819.147 748.877 817.265 744.317 815.307 739.571C816.866 739.016 818.294 738.369 819.792 738.009C821.539 737.593 823.044 738.383 824.332 739.512C827.283 742.095 830.226 744.687 833.111 747.345C833.84 748.017 834.416 748.079 835.288 747.697C837.796 746.588 840.311 745.487 842.887 744.559C845.865 743.482 850.107 743.371 851.159 747.128C851.992 750.091 849.44 752.616 846.924 753.675C838.587 757.193 830.234 760.683 821.837 764.053C815.853 766.452 811.119 764.356 808.582 758.404C808.355 757.872 807.483 755.759 807.262 755.222" stroke="#D9D8DD" stroke-opacity="0.3" stroke-width="3.84449" stroke-linecap="round" stroke-linejoin="round"/>
<path d="M812.045 777.109H831.744" stroke="#D9D8DD" stroke-opacity="0.3" stroke-width="3.84449" stroke-linecap="round" stroke-linejoin="round"/>
<path fill-rule="evenodd" clip-rule="evenodd" d="M842.398 777.11L840.449 777.435C839.023 777.674 837.765 776.487 837.92 775.05L838.139 773.038C838.242 772.07 838.649 771.156 839.299 770.43L846.97 761.981C847.972 760.897 849.664 760.833 850.748 761.835L852.539 763.493C853.623 764.496 853.689 766.188 852.684 767.272L845.107 775.617C844.401 776.408 843.445 776.935 842.398 777.11Z" stroke="#D9D8DD" stroke-opacity="0.3" stroke-width="3.84449" stroke-linecap="round" stroke-linejoin="round"/>
<path d="M954.819 551.142C957.911 549.859 964.015 547.238 967.155 545.93C965.234 541.275 963.352 536.715 961.394 531.968C962.953 531.414 964.382 530.766 965.879 530.407C967.626 529.991 969.131 530.781 970.419 531.909C973.37 534.493 976.313 537.085 979.198 539.742C979.927 540.415 980.503 540.476 981.375 540.095C983.883 538.986 986.398 537.885 988.974 536.957C991.953 535.88 996.194 535.769 997.246 539.526C998.079 542.489 995.527 545.014 993.012 546.073C984.674 549.59 976.321 553.081 967.924 556.451C961.94 558.85 957.206 556.754 954.669 550.802C954.442 550.27 953.57 548.157 953.349 547.62" stroke="#D9D8DD" stroke-opacity="0.3" stroke-width="3.84449" stroke-linecap="round" stroke-linejoin="round"/>
<path d="M958.137 569.508H977.835" stroke="#D9D8DD" stroke-opacity="0.3" stroke-width="3.84449" stroke-linecap="round" stroke-linejoin="round"/>
<path fill-rule="evenodd" clip-rule="evenodd" d="M988.487 569.508L986.539 569.833C985.113 570.072 983.854 568.885 984.009 567.448L984.228 565.436C984.332 564.468 984.738 563.554 985.389 562.827L993.059 554.379C994.061 553.295 995.754 553.231 996.838 554.233L998.628 555.891C999.712 556.893 999.779 558.586 998.774 559.67L991.197 568.015C990.49 568.806 989.534 569.333 988.487 569.508Z" stroke="#D9D8DD" stroke-opacity="0.3" stroke-width="3.84449" stroke-linecap="round" stroke-linejoin="round"/>
<path d="M1474 652.558C1477.09 651.274 1483.2 648.654 1486.34 647.346C1484.42 642.69 1482.53 638.131 1480.58 633.384C1482.14 632.83 1483.56 632.182 1485.06 631.822C1486.81 631.406 1488.31 632.197 1489.6 633.325C1492.55 635.909 1495.5 638.5 1498.38 641.158C1499.11 641.83 1499.69 641.892 1500.56 641.51C1503.07 640.402 1505.58 639.301 1508.16 638.372C1511.14 637.296 1515.38 637.185 1516.43 640.941C1517.26 643.904 1514.71 646.429 1512.19 647.489C1503.86 651.006 1495.5 654.496 1487.11 657.866C1481.12 660.265 1476.39 658.169 1473.85 652.218C1473.63 651.686 1472.75 649.572 1472.53 649.035" stroke="#D9D8DD" stroke-opacity="0.3" stroke-width="3.84449" stroke-linecap="round" stroke-linejoin="round"/>
<path d="M1477.32 670.923H1497.01" stroke="#D9D8DD" stroke-opacity="0.3" stroke-width="3.84449" stroke-linecap="round" stroke-linejoin="round"/>
<path fill-rule="evenodd" clip-rule="evenodd" d="M1507.67 670.923L1505.72 671.248C1504.29 671.487 1503.03 670.3 1503.19 668.864L1503.41 666.851C1503.51 665.883 1503.92 664.97 1504.57 664.243L1512.24 655.794C1513.24 654.71 1514.93 654.646 1516.02 655.649L1517.81 657.307C1518.89 658.309 1518.96 660.001 1517.95 661.085L1510.38 669.43C1509.67 670.221 1508.71 670.748 1507.67 670.923Z" stroke="#D9D8DD" stroke-opacity="0.3" stroke-width="3.84449" stroke-linecap="round" stroke-linejoin="round"/>
<path d="M57.5654 1048.26L62.884 1049.18L65.3464 1078.52C65.5433 1080.91 67.548 1082.76 69.949 1082.75H100.4" stroke="#D9D8DD" stroke-opacity="0.3" stroke-width="3.84449" stroke-linecap="round" stroke-linejoin="round"/>
<path d="M89.9414 1048.26L89.9642 1059.08L85.9575 1057.77L81.9277 1059.1L81.9149 1048.3" stroke="#D9D8DD" stroke-opacity="0.3" stroke-width="3.84449" stroke-linecap="round" stroke-linejoin="round"/>
<path fill-rule="evenodd" clip-rule="evenodd" d="M91.8708 1048.26L79.95 1048.29C75.7975 1048.3 73.1994 1051.25 73.2096 1055.41L73.2353 1066.64C73.2455 1070.8 75.8434 1073.74 80.0113 1073.73L91.9295 1073.7C96.0974 1073.69 98.6824 1070.75 98.6722 1066.58L98.6468 1055.35C98.6366 1051.19 96.0387 1048.25 91.8708 1048.26Z" stroke="#D9D8DD" stroke-opacity="0.3" stroke-width="3.84449" stroke-linecap="round" stroke-linejoin="round"/>
<path d="M68.6846 1092.97V1093.28M69.9117 1093.04C69.9117 1093.72 69.3587 1094.27 68.6771 1094.27C67.9955 1094.27 67.4432 1093.72 67.4432 1093.04C67.4432 1092.36 67.9955 1091.8 68.6771 1091.8C69.3587 1091.8 69.9117 1092.36 69.9117 1093.04Z" stroke="#D9D8DD" stroke-opacity="0.3" stroke-width="3.84449" stroke-linecap="round" stroke-linejoin="round"/>
<path d="M97.8423 1092.97V1093.28M99.0694 1093.04C99.0694 1093.72 98.5163 1094.27 97.8348 1094.27C97.1531 1094.27 96.601 1093.72 96.601 1093.04C96.601 1092.36 97.1531 1091.8 97.8348 1091.8C98.5163 1091.8 99.0694 1092.36 99.0694 1093.04Z" stroke="#D9D8DD" stroke-opacity="0.3" stroke-width="3.84449" stroke-linecap="round" stroke-linejoin="round"/>
</svg>
