<svg width="1489" height="1016" viewBox="0 0 1489 1016" fill="none" xmlns="http://www.w3.org/2000/svg">
<g opacity="0.7" clip-path="url(#clip0_83_2040)">
<mask id="mask0_83_2040" style="mask-type:alpha" maskUnits="userSpaceOnUse" x="123" y="0" width="1242" height="1241">
<rect width="1240.83" height="1240.83" transform="translate(123.583)" fill="url(#paint0_radial_83_2040)"/>
</mask>
<g mask="url(#mask0_83_2040)">
<g clip-path="url(#clip1_83_2040)">
<g clip-path="url(#clip2_83_2040)">
<line x1="124.014" x2="124.014" y2="1240.83" stroke="#D0D5DD" stroke-width="0.86169"/>
<line x1="192.949" x2="192.949" y2="1240.83" stroke="#D0D5DD" stroke-width="0.86169"/>
<line x1="261.885" x2="261.885" y2="1240.83" stroke="#D0D5DD" stroke-width="0.86169"/>
<line x1="330.82" x2="330.82" y2="1240.83" stroke="#D0D5DD" stroke-width="0.86169"/>
<line x1="399.755" x2="399.755" y2="1240.83" stroke="#D0D5DD" stroke-width="0.86169"/>
<line x1="468.69" x2="468.69" y2="1240.83" stroke="#D0D5DD" stroke-width="0.86169"/>
<line x1="537.625" x2="537.625" y2="1240.83" stroke="#D0D5DD" stroke-width="0.86169"/>
<line x1="606.561" x2="606.561" y2="1240.83" stroke="#D0D5DD" stroke-width="0.86169"/>
<line x1="675.496" x2="675.496" y2="1240.83" stroke="#D0D5DD" stroke-width="0.86169"/>
<line x1="744.431" x2="744.431" y2="1240.83" stroke="#D0D5DD" stroke-width="0.86169"/>
<line x1="813.366" x2="813.366" y2="1240.83" stroke="#D0D5DD" stroke-width="0.86169"/>
<line x1="882.301" x2="882.301" y2="1240.83" stroke="#D0D5DD" stroke-width="0.86169"/>
<line x1="951.237" x2="951.237" y2="1240.83" stroke="#D0D5DD" stroke-width="0.86169"/>
<line x1="1020.17" x2="1020.17" y2="1240.83" stroke="#D0D5DD" stroke-width="0.86169"/>
<line x1="1089.11" x2="1089.11" y2="1240.83" stroke="#D0D5DD" stroke-width="0.86169"/>
<line x1="1158.04" x2="1158.04" y2="1240.83" stroke="#D0D5DD" stroke-width="0.86169"/>
<line x1="1226.98" x2="1226.98" y2="1240.83" stroke="#D0D5DD" stroke-width="0.86169"/>
<line x1="1295.91" x2="1295.91" y2="1240.83" stroke="#D0D5DD" stroke-width="0.86169"/>
<line x1="1364.85" x2="1364.85" y2="1240.83" stroke="#D0D5DD" stroke-width="0.86169"/>
</g>
<g clip-path="url(#clip3_83_2040)">
<line x1="-83.2222" y1="68.5043" x2="1571.22" y2="68.5043" stroke="#D0D5DD" stroke-width="0.86169"/>
<line x1="-83.2222" y1="137.44" x2="1571.22" y2="137.44" stroke="#D0D5DD" stroke-width="0.86169"/>
<line x1="-83.2222" y1="206.375" x2="1571.22" y2="206.375" stroke="#D0D5DD" stroke-width="0.86169"/>
<line x1="-83.2222" y1="275.31" x2="1571.22" y2="275.31" stroke="#D0D5DD" stroke-width="0.86169"/>
<line x1="-83.2222" y1="344.245" x2="1571.22" y2="344.245" stroke="#D0D5DD" stroke-width="0.86169"/>
<line x1="-83.2222" y1="413.18" x2="1571.22" y2="413.18" stroke="#D0D5DD" stroke-width="0.86169"/>
<line x1="-83.2222" y1="482.115" x2="1571.22" y2="482.115" stroke="#D0D5DD" stroke-width="0.86169"/>
<line x1="-83.2222" y1="551.051" x2="1571.22" y2="551.051" stroke="#D0D5DD" stroke-width="0.86169"/>
<line x1="-83.2222" y1="619.986" x2="1571.22" y2="619.986" stroke="#D0D5DD" stroke-width="0.86169"/>
<line x1="-83.2222" y1="688.921" x2="1571.22" y2="688.921" stroke="#D0D5DD" stroke-width="0.86169"/>
<line x1="-83.2222" y1="757.856" x2="1571.22" y2="757.856" stroke="#D0D5DD" stroke-width="0.86169"/>
<line x1="-83.2222" y1="826.791" x2="1571.22" y2="826.791" stroke="#D0D5DD" stroke-width="0.86169"/>
<line x1="-83.2222" y1="895.727" x2="1571.22" y2="895.727" stroke="#D0D5DD" stroke-width="0.86169"/>
<line x1="-83.2222" y1="964.662" x2="1571.22" y2="964.662" stroke="#D0D5DD" stroke-width="0.86169"/>
</g>
</g>
</g>
</g>
<defs>
<radialGradient id="paint0_radial_83_2040" cx="0" cy="0" r="1" gradientUnits="userSpaceOnUse" gradientTransform="translate(620.417 -0.000147919) rotate(90) scale(1240.83 647.636)">
<stop/>
<stop offset="0.953125" stop-opacity="0"/>
</radialGradient>
<clipPath id="clip0_83_2040">
<rect width="1489" height="1016" fill="white"/>
</clipPath>
<clipPath id="clip1_83_2040">
<rect width="1654.44" height="1240.83" fill="white" transform="translate(-83.2222)"/>
</clipPath>
<clipPath id="clip2_83_2040">
<rect width="1654.44" height="1240.83" fill="white" transform="translate(-83.2222)"/>
</clipPath>
<clipPath id="clip3_83_2040">
<rect width="1654.44" height="1240.83" fill="white" transform="translate(-83.2222)"/>
</clipPath>
</defs>
</svg>
